<mxfile host="65bd71144e">
    <diagram id="SwyTIUc-K7ksmOeCrZUB" name="Page-1">
        <mxGraphModel dx="906" dy="626" grid="1" gridSize="10" guides="1" tooltips="1" connect="1" arrows="1" fold="1" page="1" pageScale="1" pageWidth="850" pageHeight="1100" math="0" shadow="0">
            <root>
                <mxCell id="0"/>
                <mxCell id="1" parent="0"/>
                <mxCell id="5" value="" style="rounded=1;whiteSpace=wrap;html=1;fillColor=default;strokeColor=#b85450;" parent="1" vertex="1">
                    <mxGeometry x="80" y="150" width="200" height="50" as="geometry"/>
                </mxCell>
                <mxCell id="7" value="" style="rounded=1;whiteSpace=wrap;html=1;fillColor=default;strokeColor=#82b366;" parent="1" vertex="1">
                    <mxGeometry x="80" y="220" width="200" height="50" as="geometry"/>
                </mxCell>
                <mxCell id="8" value="" style="rounded=1;whiteSpace=wrap;html=1;fillColor=default;strokeColor=#6c8ebf;" parent="1" vertex="1">
                    <mxGeometry x="80" y="290" width="200" height="50" as="geometry"/>
                </mxCell>
                <mxCell id="9" value="" style="rounded=1;whiteSpace=wrap;html=1;fillColor=default;strokeColor=#d6b656;" parent="1" vertex="1">
                    <mxGeometry x="80" y="360" width="200" height="50" as="geometry"/>
                </mxCell>
                <mxCell id="10" value="" style="endArrow=classic;html=1;exitX=1;exitY=0.5;exitDx=0;exitDy=0;" parent="1" source="5" edge="1">
                    <mxGeometry width="50" height="50" relative="1" as="geometry">
                        <mxPoint x="370" y="290" as="sourcePoint"/>
                        <mxPoint x="390" y="270" as="targetPoint"/>
                    </mxGeometry>
                </mxCell>
                <mxCell id="11" value="" style="endArrow=classic;html=1;exitX=1;exitY=0.5;exitDx=0;exitDy=0;" parent="1" source="9" edge="1">
                    <mxGeometry width="50" height="50" relative="1" as="geometry">
                        <mxPoint x="290" y="210" as="sourcePoint"/>
                        <mxPoint x="390" y="300" as="targetPoint"/>
                    </mxGeometry>
                </mxCell>
                <mxCell id="12" value="" style="endArrow=classic;html=1;exitX=1;exitY=0.5;exitDx=0;exitDy=0;" parent="1" source="8" edge="1">
                    <mxGeometry width="50" height="50" relative="1" as="geometry">
                        <mxPoint x="290" y="380" as="sourcePoint"/>
                        <mxPoint x="390" y="290" as="targetPoint"/>
                    </mxGeometry>
                </mxCell>
                <mxCell id="13" value="" style="endArrow=classic;html=1;exitX=1;exitY=0.5;exitDx=0;exitDy=0;" parent="1" source="7" edge="1">
                    <mxGeometry width="50" height="50" relative="1" as="geometry">
                        <mxPoint x="290" y="320" as="sourcePoint"/>
                        <mxPoint x="390" y="280" as="targetPoint"/>
                    </mxGeometry>
                </mxCell>
                <mxCell id="4" value="A" style="ellipse;whiteSpace=wrap;html=1;aspect=fixed;fillColor=#f8cecc;strokeColor=#b85450;" parent="1" vertex="1">
                    <mxGeometry x="240" y="160" width="30" height="30" as="geometry"/>
                </mxCell>
                <mxCell id="14" value="A" style="ellipse;whiteSpace=wrap;html=1;aspect=fixed;fillColor=#f8cecc;strokeColor=#b85450;" parent="1" vertex="1">
                    <mxGeometry x="200" y="160" width="30" height="30" as="geometry"/>
                </mxCell>
                <mxCell id="15" value="A" style="ellipse;whiteSpace=wrap;html=1;aspect=fixed;fillColor=#f8cecc;strokeColor=#b85450;" parent="1" vertex="1">
                    <mxGeometry x="160" y="160" width="30" height="30" as="geometry"/>
                </mxCell>
                <mxCell id="16" value="B" style="ellipse;whiteSpace=wrap;html=1;aspect=fixed;fillColor=#d5e8d4;strokeColor=#82b366;" parent="1" vertex="1">
                    <mxGeometry x="200" y="230" width="30" height="30" as="geometry"/>
                </mxCell>
                <mxCell id="17" value="B" style="ellipse;whiteSpace=wrap;html=1;aspect=fixed;fillColor=#d5e8d4;strokeColor=#82b366;" parent="1" vertex="1">
                    <mxGeometry x="240" y="230" width="30" height="30" as="geometry"/>
                </mxCell>
                <mxCell id="18" value="C" style="ellipse;whiteSpace=wrap;html=1;aspect=fixed;fillColor=#dae8fc;strokeColor=#6c8ebf;" parent="1" vertex="1">
                    <mxGeometry x="240" y="300" width="30" height="30" as="geometry"/>
                </mxCell>
                <mxCell id="19" value="C" style="ellipse;whiteSpace=wrap;html=1;aspect=fixed;fillColor=#dae8fc;strokeColor=#6c8ebf;" parent="1" vertex="1">
                    <mxGeometry x="200" y="300" width="30" height="30" as="geometry"/>
                </mxCell>
                <mxCell id="20" value="D" style="ellipse;whiteSpace=wrap;html=1;aspect=fixed;fillColor=#fff2cc;strokeColor=#d6b656;" parent="1" vertex="1">
                    <mxGeometry x="240" y="370" width="30" height="30" as="geometry"/>
                </mxCell>
                <mxCell id="21" value="" style="shape=cross;whiteSpace=wrap;html=1;fillColor=#f5f5f5;size=0.17310367506377783;fontColor=#333333;strokeColor=#666666;rotation=45;" parent="1" vertex="1">
                    <mxGeometry x="280" y="290" width="40" height="40" as="geometry"/>
                </mxCell>
                <mxCell id="22" value="Dead" style="text;html=1;strokeColor=none;fillColor=none;align=center;verticalAlign=middle;whiteSpace=wrap;rounded=0;fontStyle=1" parent="1" vertex="1">
                    <mxGeometry x="270" y="310" width="60" height="30" as="geometry"/>
                </mxCell>
                <mxCell id="34" value="Weight: 3" style="text;html=1;strokeColor=none;fillColor=none;align=center;verticalAlign=middle;whiteSpace=wrap;rounded=0;" parent="1" vertex="1">
                    <mxGeometry x="80" y="160" width="60" height="30" as="geometry"/>
                </mxCell>
                <mxCell id="35" value="Weight: 2" style="text;html=1;strokeColor=none;fillColor=none;align=center;verticalAlign=middle;whiteSpace=wrap;rounded=0;" parent="1" vertex="1">
                    <mxGeometry x="80" y="230" width="60" height="30" as="geometry"/>
                </mxCell>
                <mxCell id="36" value="Weight: 2" style="text;html=1;strokeColor=none;fillColor=none;align=center;verticalAlign=middle;whiteSpace=wrap;rounded=0;" parent="1" vertex="1">
                    <mxGeometry x="80" y="300" width="60" height="30" as="geometry"/>
                </mxCell>
                <mxCell id="37" value="Weight: 1" style="text;html=1;strokeColor=none;fillColor=none;align=center;verticalAlign=middle;whiteSpace=wrap;rounded=0;" parent="1" vertex="1">
                    <mxGeometry x="80" y="370" width="60" height="30" as="geometry"/>
                </mxCell>
                <mxCell id="128" value="3" style="whiteSpace=wrap;html=1;aspect=fixed;strokeColor=#999999;" vertex="1" parent="1">
                    <mxGeometry x="440" y="220" width="30" height="30" as="geometry"/>
                </mxCell>
                <mxCell id="129" value="5" style="whiteSpace=wrap;html=1;aspect=fixed;strokeColor=#999999;" vertex="1" parent="1">
                    <mxGeometry x="440" y="250" width="30" height="30" as="geometry"/>
                </mxCell>
                <mxCell id="130" value="0" style="whiteSpace=wrap;html=1;aspect=fixed;strokeColor=#999999;" vertex="1" parent="1">
                    <mxGeometry x="440" y="280" width="30" height="30" as="geometry"/>
                </mxCell>
                <mxCell id="131" value="2" style="whiteSpace=wrap;html=1;aspect=fixed;strokeColor=#999999;" vertex="1" parent="1">
                    <mxGeometry x="440" y="310" width="30" height="30" as="geometry"/>
                </mxCell>
                <mxCell id="132" value="4" style="whiteSpace=wrap;html=1;aspect=fixed;strokeColor=#999999;" vertex="1" parent="1">
                    <mxGeometry x="440" y="340" width="30" height="30" as="geometry"/>
                </mxCell>
                <mxCell id="133" value="6" style="whiteSpace=wrap;html=1;aspect=fixed;strokeColor=#999999;" vertex="1" parent="1">
                    <mxGeometry x="440" y="370" width="30" height="30" as="geometry"/>
                </mxCell>
                <mxCell id="134" value="1" style="whiteSpace=wrap;html=1;aspect=fixed;strokeColor=#999999;" vertex="1" parent="1">
                    <mxGeometry x="440" y="190" width="30" height="30" as="geometry"/>
                </mxCell>
                <mxCell id="135" value="1" style="whiteSpace=wrap;html=1;aspect=fixed;strokeColor=#999999;" vertex="1" parent="1">
                    <mxGeometry x="470" y="220" width="30" height="30" as="geometry"/>
                </mxCell>
                <mxCell id="136" value="2" style="whiteSpace=wrap;html=1;aspect=fixed;strokeColor=#999999;" vertex="1" parent="1">
                    <mxGeometry x="470" y="250" width="30" height="30" as="geometry"/>
                </mxCell>
                <mxCell id="137" value="3" style="whiteSpace=wrap;html=1;aspect=fixed;strokeColor=#999999;" vertex="1" parent="1">
                    <mxGeometry x="470" y="280" width="30" height="30" as="geometry"/>
                </mxCell>
                <mxCell id="138" value="4" style="whiteSpace=wrap;html=1;aspect=fixed;strokeColor=#999999;" vertex="1" parent="1">
                    <mxGeometry x="470" y="310" width="30" height="30" as="geometry"/>
                </mxCell>
                <mxCell id="139" value="5" style="whiteSpace=wrap;html=1;aspect=fixed;strokeColor=#999999;" vertex="1" parent="1">
                    <mxGeometry x="470" y="340" width="30" height="30" as="geometry"/>
                </mxCell>
                <mxCell id="140" value="6" style="whiteSpace=wrap;html=1;aspect=fixed;strokeColor=#999999;" vertex="1" parent="1">
                    <mxGeometry x="470" y="370" width="30" height="30" as="geometry"/>
                </mxCell>
                <mxCell id="141" value="0" style="whiteSpace=wrap;html=1;aspect=fixed;strokeColor=#999999;" vertex="1" parent="1">
                    <mxGeometry x="470" y="190" width="30" height="30" as="geometry"/>
                </mxCell>
                <mxCell id="142" value="0" style="whiteSpace=wrap;html=1;aspect=fixed;strokeColor=#666666;fillColor=#f5f5f5;fontColor=#333333;" vertex="1" parent="1">
                    <mxGeometry x="500" y="220" width="30" height="30" as="geometry"/>
                </mxCell>
                <mxCell id="143" value="3" style="whiteSpace=wrap;html=1;aspect=fixed;strokeColor=#666666;fillColor=#f5f5f5;fontColor=#333333;" vertex="1" parent="1">
                    <mxGeometry x="500" y="250" width="30" height="30" as="geometry"/>
                </mxCell>
                <mxCell id="144" value="6" style="whiteSpace=wrap;html=1;aspect=fixed;strokeColor=#666666;fillColor=#f5f5f5;fontColor=#333333;" vertex="1" parent="1">
                    <mxGeometry x="500" y="280" width="30" height="30" as="geometry"/>
                </mxCell>
                <mxCell id="145" value="2" style="whiteSpace=wrap;html=1;aspect=fixed;strokeColor=#666666;fillColor=#f5f5f5;fontColor=#333333;" vertex="1" parent="1">
                    <mxGeometry x="500" y="310" width="30" height="30" as="geometry"/>
                </mxCell>
                <mxCell id="146" value="5" style="whiteSpace=wrap;html=1;aspect=fixed;strokeColor=#666666;fillColor=#f5f5f5;fontColor=#333333;" vertex="1" parent="1">
                    <mxGeometry x="500" y="340" width="30" height="30" as="geometry"/>
                </mxCell>
                <mxCell id="147" value="1" style="whiteSpace=wrap;html=1;aspect=fixed;strokeColor=#666666;fillColor=#f5f5f5;fontColor=#333333;" vertex="1" parent="1">
                    <mxGeometry x="500" y="370" width="30" height="30" as="geometry"/>
                </mxCell>
                <mxCell id="148" value="4" style="whiteSpace=wrap;html=1;aspect=fixed;strokeColor=#666666;fillColor=#f5f5f5;fontColor=#333333;" vertex="1" parent="1">
                    <mxGeometry x="500" y="190" width="30" height="30" as="geometry"/>
                </mxCell>
                <mxCell id="149" value="0" style="whiteSpace=wrap;html=1;aspect=fixed;strokeColor=#999999;" vertex="1" parent="1">
                    <mxGeometry x="530" y="220" width="30" height="30" as="geometry"/>
                </mxCell>
                <mxCell id="150" value="5" style="whiteSpace=wrap;html=1;aspect=fixed;strokeColor=#999999;" vertex="1" parent="1">
                    <mxGeometry x="530" y="250" width="30" height="30" as="geometry"/>
                </mxCell>
                <mxCell id="151" value="3" style="whiteSpace=wrap;html=1;aspect=fixed;strokeColor=#999999;" vertex="1" parent="1">
                    <mxGeometry x="530" y="280" width="30" height="30" as="geometry"/>
                </mxCell>
                <mxCell id="152" value="1" style="whiteSpace=wrap;html=1;aspect=fixed;strokeColor=#999999;" vertex="1" parent="1">
                    <mxGeometry x="530" y="310" width="30" height="30" as="geometry"/>
                </mxCell>
                <mxCell id="153" value="6" style="whiteSpace=wrap;html=1;aspect=fixed;strokeColor=#999999;" vertex="1" parent="1">
                    <mxGeometry x="530" y="340" width="30" height="30" as="geometry"/>
                </mxCell>
                <mxCell id="154" value="4" style="whiteSpace=wrap;html=1;aspect=fixed;strokeColor=#999999;" vertex="1" parent="1">
                    <mxGeometry x="530" y="370" width="30" height="30" as="geometry"/>
                </mxCell>
                <mxCell id="155" value="2" style="whiteSpace=wrap;html=1;aspect=fixed;strokeColor=#999999;" vertex="1" parent="1">
                    <mxGeometry x="530" y="190" width="30" height="30" as="geometry"/>
                </mxCell>
                <mxCell id="163" value="Permutation Table" style="text;html=1;strokeColor=none;fillColor=none;align=center;verticalAlign=middle;whiteSpace=wrap;rounded=0;" vertex="1" parent="1">
                    <mxGeometry x="440" y="90" width="120" height="20" as="geometry"/>
                </mxCell>
                <mxCell id="164" value="Lookup Table" style="text;html=1;strokeColor=none;fillColor=none;align=center;verticalAlign=middle;whiteSpace=wrap;rounded=0;" vertex="1" parent="1">
                    <mxGeometry x="590" y="160" width="80" height="20" as="geometry"/>
                </mxCell>
                <mxCell id="165" value="A" style="ellipse;whiteSpace=wrap;html=1;aspect=fixed;fillColor=#f8cecc;strokeColor=#b85450;" vertex="1" parent="1">
                    <mxGeometry x="445" y="110" width="20" height="20" as="geometry"/>
                </mxCell>
                <mxCell id="166" value="B" style="ellipse;whiteSpace=wrap;html=1;aspect=fixed;fillColor=#d5e8d4;strokeColor=#82b366;" vertex="1" parent="1">
                    <mxGeometry x="475" y="110" width="20" height="20" as="geometry"/>
                </mxCell>
                <mxCell id="167" value="C" style="ellipse;whiteSpace=wrap;html=1;aspect=fixed;fillColor=#dae8fc;strokeColor=#6c8ebf;" vertex="1" parent="1">
                    <mxGeometry x="505" y="110" width="20" height="20" as="geometry"/>
                </mxCell>
                <mxCell id="168" value="D" style="ellipse;whiteSpace=wrap;html=1;aspect=fixed;fillColor=#fff2cc;strokeColor=#d6b656;" vertex="1" parent="1">
                    <mxGeometry x="535" y="110" width="20" height="20" as="geometry"/>
                </mxCell>
                <mxCell id="169" value="i = 0" style="rounded=0;whiteSpace=wrap;html=1;" vertex="1" parent="1">
                    <mxGeometry x="410" y="190" width="30" height="30" as="geometry"/>
                </mxCell>
                <mxCell id="170" value="1" style="rounded=0;whiteSpace=wrap;html=1;" vertex="1" parent="1">
                    <mxGeometry x="410" y="220" width="30" height="30" as="geometry"/>
                </mxCell>
                <mxCell id="175" value="1" style="rounded=0;whiteSpace=wrap;html=1;strokeColor=#E6E6E6;fillColor=default;" vertex="1" parent="1">
                    <mxGeometry x="440" y="140" width="30" height="20" as="geometry"/>
                </mxCell>
                <mxCell id="176" value="0" style="rounded=0;whiteSpace=wrap;html=1;strokeColor=#E6E6E6;fillColor=default;" vertex="1" parent="1">
                    <mxGeometry x="470" y="140" width="30" height="20" as="geometry"/>
                </mxCell>
                <mxCell id="177" value="4" style="rounded=0;whiteSpace=wrap;html=1;strokeColor=#E6E6E6;fillColor=default;" vertex="1" parent="1">
                    <mxGeometry x="500" y="140" width="30" height="20" as="geometry"/>
                </mxCell>
                <mxCell id="178" value="2" style="rounded=0;whiteSpace=wrap;html=1;strokeColor=#E6E6E6;fillColor=default;" vertex="1" parent="1">
                    <mxGeometry x="530" y="140" width="30" height="20" as="geometry"/>
                </mxCell>
                <mxCell id="179" value="2" style="rounded=0;whiteSpace=wrap;html=1;strokeColor=#E6E6E6;fillColor=default;" vertex="1" parent="1">
                    <mxGeometry x="440" y="160" width="30" height="20" as="geometry"/>
                </mxCell>
                <mxCell id="180" value="1" style="rounded=0;whiteSpace=wrap;html=1;strokeColor=#E6E6E6;fillColor=default;" vertex="1" parent="1">
                    <mxGeometry x="470" y="160" width="30" height="20" as="geometry"/>
                </mxCell>
                <mxCell id="181" value="3" style="rounded=0;whiteSpace=wrap;html=1;strokeColor=#E6E6E6;fillColor=default;" vertex="1" parent="1">
                    <mxGeometry x="500" y="160" width="30" height="20" as="geometry"/>
                </mxCell>
                <mxCell id="182" value="5" style="rounded=0;whiteSpace=wrap;html=1;strokeColor=#E6E6E6;fillColor=default;" vertex="1" parent="1">
                    <mxGeometry x="530" y="160" width="30" height="20" as="geometry"/>
                </mxCell>
                <mxCell id="183" value="2" style="rounded=0;whiteSpace=wrap;html=1;" vertex="1" parent="1">
                    <mxGeometry x="410" y="250" width="30" height="30" as="geometry"/>
                </mxCell>
                <mxCell id="184" value="3" style="rounded=0;whiteSpace=wrap;html=1;" vertex="1" parent="1">
                    <mxGeometry x="410" y="280" width="30" height="30" as="geometry"/>
                </mxCell>
                <mxCell id="185" value="4" style="rounded=0;whiteSpace=wrap;html=1;" vertex="1" parent="1">
                    <mxGeometry x="410" y="310" width="30" height="30" as="geometry"/>
                </mxCell>
                <mxCell id="186" value="5" style="rounded=0;whiteSpace=wrap;html=1;" vertex="1" parent="1">
                    <mxGeometry x="410" y="340" width="30" height="30" as="geometry"/>
                </mxCell>
                <mxCell id="187" value="6" style="rounded=0;whiteSpace=wrap;html=1;" vertex="1" parent="1">
                    <mxGeometry x="410" y="370" width="30" height="30" as="geometry"/>
                </mxCell>
                <mxCell id="173" value="offset" style="rounded=0;whiteSpace=wrap;html=1;strokeColor=#999999;" vertex="1" parent="1">
                    <mxGeometry x="400" y="140" width="40" height="20" as="geometry"/>
                </mxCell>
                <mxCell id="174" value="skip" style="rounded=0;whiteSpace=wrap;html=1;strokeColor=#999999;" vertex="1" parent="1">
                    <mxGeometry x="400" y="160" width="40" height="20" as="geometry"/>
                </mxCell>
                <mxCell id="188" value="" style="ellipse;whiteSpace=wrap;html=1;aspect=fixed;strokeColor=#b85450;fillColor=none;" vertex="1" parent="1">
                    <mxGeometry x="470" y="370" width="30" height="30" as="geometry"/>
                </mxCell>
                <mxCell id="191" style="edgeStyle=none;html=1;entryX=0;entryY=1;entryDx=0;entryDy=0;fillColor=#f8cecc;strokeColor=#b85450;exitX=0.991;exitY=0.437;exitDx=0;exitDy=0;exitPerimeter=0;endArrow=none;endFill=0;" edge="1" parent="1" source="190" target="188">
                    <mxGeometry relative="1" as="geometry"/>
                </mxCell>
                <mxCell id="190" value="( offset + skip * i )%7" style="text;html=1;strokeColor=none;fillColor=none;align=center;verticalAlign=middle;whiteSpace=wrap;rounded=0;" vertex="1" parent="1">
                    <mxGeometry x="320" y="410" width="120" height="20" as="geometry"/>
                </mxCell>
                <mxCell id="192" value="" style="whiteSpace=wrap;html=1;aspect=fixed;strokeColor=#999999;" vertex="1" parent="1">
                    <mxGeometry x="630" y="220" width="30" height="30" as="geometry"/>
                </mxCell>
                <mxCell id="193" value="" style="whiteSpace=wrap;html=1;aspect=fixed;strokeColor=#999999;" vertex="1" parent="1">
                    <mxGeometry x="630" y="250" width="30" height="30" as="geometry"/>
                </mxCell>
                <mxCell id="194" value="" style="whiteSpace=wrap;html=1;aspect=fixed;strokeColor=#999999;" vertex="1" parent="1">
                    <mxGeometry x="630" y="280" width="30" height="30" as="geometry"/>
                </mxCell>
                <mxCell id="195" value="" style="whiteSpace=wrap;html=1;aspect=fixed;strokeColor=#999999;" vertex="1" parent="1">
                    <mxGeometry x="630" y="310" width="30" height="30" as="geometry"/>
                </mxCell>
                <mxCell id="196" value="" style="whiteSpace=wrap;html=1;aspect=fixed;strokeColor=#999999;" vertex="1" parent="1">
                    <mxGeometry x="630" y="340" width="30" height="30" as="geometry"/>
                </mxCell>
                <mxCell id="197" value="" style="whiteSpace=wrap;html=1;aspect=fixed;strokeColor=#999999;" vertex="1" parent="1">
                    <mxGeometry x="630" y="370" width="30" height="30" as="geometry"/>
                </mxCell>
                <mxCell id="198" value="" style="whiteSpace=wrap;html=1;aspect=fixed;strokeColor=#999999;" vertex="1" parent="1">
                    <mxGeometry x="630" y="190" width="30" height="30" as="geometry"/>
                </mxCell>
                <mxCell id="199" value="i = 0" style="rounded=0;whiteSpace=wrap;html=1;" vertex="1" parent="1">
                    <mxGeometry x="600" y="190" width="30" height="30" as="geometry"/>
                </mxCell>
                <mxCell id="200" value="1" style="rounded=0;whiteSpace=wrap;html=1;" vertex="1" parent="1">
                    <mxGeometry x="600" y="220" width="30" height="30" as="geometry"/>
                </mxCell>
                <mxCell id="201" value="2" style="rounded=0;whiteSpace=wrap;html=1;" vertex="1" parent="1">
                    <mxGeometry x="600" y="250" width="30" height="30" as="geometry"/>
                </mxCell>
                <mxCell id="202" value="3" style="rounded=0;whiteSpace=wrap;html=1;" vertex="1" parent="1">
                    <mxGeometry x="600" y="280" width="30" height="30" as="geometry"/>
                </mxCell>
                <mxCell id="203" value="4" style="rounded=0;whiteSpace=wrap;html=1;" vertex="1" parent="1">
                    <mxGeometry x="600" y="310" width="30" height="30" as="geometry"/>
                </mxCell>
                <mxCell id="204" value="5" style="rounded=0;whiteSpace=wrap;html=1;" vertex="1" parent="1">
                    <mxGeometry x="600" y="340" width="30" height="30" as="geometry"/>
                </mxCell>
                <mxCell id="205" value="6" style="rounded=0;whiteSpace=wrap;html=1;" vertex="1" parent="1">
                    <mxGeometry x="600" y="370" width="30" height="30" as="geometry"/>
                </mxCell>
                <mxCell id="207" value="A" style="ellipse;whiteSpace=wrap;html=1;aspect=fixed;fillColor=#f8cecc;strokeColor=#b85450;" vertex="1" parent="1">
                    <mxGeometry x="635" y="225" width="20" height="20" as="geometry"/>
                </mxCell>
                <mxCell id="208" value="B" style="ellipse;whiteSpace=wrap;html=1;aspect=fixed;fillColor=#d5e8d4;strokeColor=#82b366;" vertex="1" parent="1">
                    <mxGeometry x="635" y="195" width="20" height="20" as="geometry"/>
                </mxCell>
                <mxCell id="210" value="D" style="ellipse;whiteSpace=wrap;html=1;aspect=fixed;fillColor=#fff2cc;strokeColor=#d6b656;" vertex="1" parent="1">
                    <mxGeometry x="635" y="375" width="20" height="20" as="geometry"/>
                </mxCell>
                <mxCell id="211" value="A" style="ellipse;whiteSpace=wrap;html=1;aspect=fixed;fillColor=#f8cecc;strokeColor=#b85450;" vertex="1" parent="1">
                    <mxGeometry x="635" y="285" width="20" height="20" as="geometry"/>
                </mxCell>
                <mxCell id="212" value="A" style="ellipse;whiteSpace=wrap;html=1;aspect=fixed;fillColor=#f8cecc;strokeColor=#b85450;" vertex="1" parent="1">
                    <mxGeometry x="635" y="345" width="20" height="20" as="geometry"/>
                </mxCell>
                <mxCell id="215" value="B" style="ellipse;whiteSpace=wrap;html=1;aspect=fixed;fillColor=#d5e8d4;strokeColor=#82b366;" vertex="1" parent="1">
                    <mxGeometry x="635" y="255" width="20" height="20" as="geometry"/>
                </mxCell>
                <mxCell id="216" value="A" style="ellipse;whiteSpace=wrap;html=1;aspect=fixed;fillColor=#f8cecc;strokeColor=#b85450;" vertex="1" parent="1">
                    <mxGeometry x="635" y="315" width="20" height="20" as="geometry"/>
                </mxCell>
                <mxCell id="217" value="" style="triangle;whiteSpace=wrap;html=1;strokeColor=none;fillColor=#e1d5e7;" vertex="1" parent="1">
                    <mxGeometry x="570" y="250" width="20" height="80" as="geometry"/>
                </mxCell>
                <mxCell id="218" style="edgeStyle=none;html=1;exitX=0;exitY=0.5;exitDx=0;exitDy=0;fontColor=#000000;entryX=1;entryY=0.5;entryDx=0;entryDy=0;" edge="1" parent="1" source="219" target="195">
                    <mxGeometry relative="1" as="geometry">
                        <mxPoint x="630" y="380" as="targetPoint"/>
                    </mxGeometry>
                </mxCell>
                <mxCell id="219" value="&lt;font color=&quot;#000000&quot;&gt;Cookie: session=ef56&lt;br&gt;hash(&quot;ef56&quot;&lt;/font&gt;&lt;font style=&quot;&quot; color=&quot;#000000&quot;&gt;)&lt;/font&gt;&lt;font style=&quot;font-weight: bold;&quot; color=&quot;#0000ff&quot;&gt;%7 = &lt;/font&gt;&lt;font color=&quot;#ff0000&quot; style=&quot;font-weight: bold;&quot;&gt;3&lt;/font&gt;" style="rounded=0;whiteSpace=wrap;html=1;fillColor=#f5f5f5;fontColor=#333333;strokeColor=#666666;align=left;spacingLeft=2;" vertex="1" parent="1">
                    <mxGeometry x="720" y="300" width="140" height="40" as="geometry"/>
                </mxCell>
                <mxCell id="220" style="edgeStyle=none;html=1;exitX=0;exitY=0.5;exitDx=0;exitDy=0;fontColor=#000000;entryX=1;entryY=0.5;entryDx=0;entryDy=0;" edge="1" parent="1" source="221" target="193">
                    <mxGeometry relative="1" as="geometry">
                        <mxPoint x="630" y="220" as="targetPoint"/>
                    </mxGeometry>
                </mxCell>
                <mxCell id="221" value="&lt;span style=&quot;color: rgb(0, 0, 0);&quot;&gt;Cookie: session=cd34&lt;/span&gt;&lt;br style=&quot;border-color: var(--border-color); color: rgb(0, 0, 0);&quot;&gt;&lt;font color=&quot;#000000&quot;&gt;hash(&quot;cd34&quot;&lt;/font&gt;&lt;font style=&quot;&quot; color=&quot;#000000&quot;&gt;)&lt;/font&gt;&lt;font style=&quot;font-weight: bold;&quot; color=&quot;#0000ff&quot;&gt;%7 = &lt;/font&gt;&lt;font color=&quot;#ff0000&quot; style=&quot;font-weight: bold;&quot;&gt;2&lt;/font&gt;" style="rounded=0;whiteSpace=wrap;html=1;fillColor=#f5f5f5;fontColor=#333333;strokeColor=#666666;align=left;spacingLeft=2;" vertex="1" parent="1">
                    <mxGeometry x="720" y="250" width="140" height="40" as="geometry"/>
                </mxCell>
                <mxCell id="222" style="edgeStyle=none;html=1;exitX=0;exitY=0.5;exitDx=0;exitDy=0;fontColor=#000000;entryX=1;entryY=0.5;entryDx=0;entryDy=0;" edge="1" parent="1" source="223" target="197">
                    <mxGeometry relative="1" as="geometry">
                        <mxPoint x="630" y="420" as="targetPoint"/>
                    </mxGeometry>
                </mxCell>
                <mxCell id="223" value="&lt;font color=&quot;#000000&quot;&gt;Cookie: session=gh78&lt;br&gt;hash(&quot;gh78&quot;&lt;/font&gt;&lt;font style=&quot;&quot; color=&quot;#000000&quot;&gt;)&lt;/font&gt;&lt;font style=&quot;font-weight: bold;&quot; color=&quot;#0000ff&quot;&gt;%7 = &lt;/font&gt;&lt;font color=&quot;#ff0000&quot; style=&quot;font-weight: bold;&quot;&gt;6&lt;/font&gt;" style="rounded=0;whiteSpace=wrap;html=1;fillColor=#f5f5f5;fontColor=#333333;strokeColor=#666666;align=left;spacingLeft=2;" vertex="1" parent="1">
                    <mxGeometry x="720" y="350" width="140" height="40" as="geometry"/>
                </mxCell>
                <mxCell id="224" style="edgeStyle=none;html=1;exitX=0;exitY=0.5;exitDx=0;exitDy=0;fontColor=#000000;entryX=1;entryY=0.5;entryDx=0;entryDy=0;" edge="1" parent="1" source="225" target="198">
                    <mxGeometry relative="1" as="geometry">
                        <mxPoint x="630" y="220" as="targetPoint"/>
                    </mxGeometry>
                </mxCell>
                <mxCell id="225" value="&lt;span style=&quot;color: rgb(0, 0, 0);&quot;&gt;Cookie: session=ab12&lt;/span&gt;&lt;br style=&quot;border-color: var(--border-color); color: rgb(0, 0, 0);&quot;&gt;&lt;font color=&quot;#000000&quot;&gt;hash(&quot;ab12&quot;&lt;/font&gt;&lt;font style=&quot;&quot; color=&quot;#000000&quot;&gt;)&lt;/font&gt;&lt;font style=&quot;font-weight: bold;&quot; color=&quot;#0000ff&quot;&gt;%7 = &lt;/font&gt;&lt;font color=&quot;#ff0000&quot; style=&quot;font-weight: bold;&quot;&gt;0&lt;/font&gt;" style="rounded=0;whiteSpace=wrap;html=1;fillColor=#f5f5f5;fontColor=#333333;strokeColor=#666666;align=left;spacingLeft=2;" vertex="1" parent="1">
                    <mxGeometry x="720" y="200" width="140" height="40" as="geometry"/>
                </mxCell>
                <mxCell id="226" value="" style="endArrow=none;html=1;entryX=1;entryY=0;entryDx=0;entryDy=0;dashed=1;dashPattern=1 1;fillColor=#f5f5f5;strokeColor=#666666;" edge="1" parent="1" target="148">
                    <mxGeometry width="50" height="50" relative="1" as="geometry">
                        <mxPoint x="500" y="400" as="sourcePoint"/>
                        <mxPoint x="550" y="350" as="targetPoint"/>
                    </mxGeometry>
                </mxCell>
                <mxCell id="227" value="" style="endArrow=none;html=1;entryX=0;entryY=0;entryDx=0;entryDy=0;exitX=1;exitY=1;exitDx=0;exitDy=0;dashed=1;dashPattern=1 1;fillColor=#f5f5f5;strokeColor=#666666;" edge="1" parent="1" source="147" target="148">
                    <mxGeometry width="50" height="50" relative="1" as="geometry">
                        <mxPoint x="510" y="410" as="sourcePoint"/>
                        <mxPoint x="540" y="200" as="targetPoint"/>
                    </mxGeometry>
                </mxCell>
            </root>
        </mxGraphModel>
    </diagram>
</mxfile>